<svg width="18" height="18" viewBox="0 0 18 18" fill="none" xmlns="http://www.w3.org/2000/svg">
<path d="M15.8492 4.52435H7.73663C6.49058 4.52435 6.31573 2.23352 6.05603 1.37057C5.93032 0.952896 5.54688 0.666672 5.11273 0.666672H1.65221C0.296501 0.666672 0.217493 3.49394 1.65221 3.49394C2.4138 3.49394 3.67544 3.23951 3.96345 4.1989L6.00215 11.0142C6.32961 12.1051 7.4134 12.774 8.52888 12.5598C11.0579 12.0788 13.6384 11.476 15.9548 10.3231C16.6678 9.96898 17.1495 9.27992 17.2456 8.48697C17.3546 7.5765 17.3562 6.66562 17.2467 5.75512C17.1622 5.04803 16.558 4.52435 15.8492 4.52435Z" fill="#172029"/>
<path d="M5.33159 15.5672C5.33159 16.5425 6.12066 17.3333 7.09248 17.3333C8.0643 17.3333 8.85338 16.5425 8.85338 15.5672C8.85338 14.5909 8.0643 13.8001 7.09248 13.8001C6.12066 13.8001 5.33159 14.5909 5.33159 15.5672Z" fill="#172029"/>
<path d="M14.3109 17.3333C13.339 17.3333 12.55 16.5425 12.55 15.5672C12.55 14.5909 13.339 13.8001 14.3109 13.8001C15.2827 13.8001 16.0718 14.5909 16.0718 15.5672C16.0718 16.5425 15.2827 17.3333 14.3109 17.3333Z" fill="#172029"/>
</svg>
